<svg xmlns="http://www.w3.org/2000/svg" enable-background="new 0 0 47.5 47.5" viewBox="0 0 47.5 47.5"><defs><clipPath id="a"><path d="M0 38h38V0H0v38Z"/></clipPath></defs><g clip-path="url(#a)" transform="matrix(1.25 0 0 -1.25 0 47.5)"><path fill="#ffcc4d" d="M0 0c-8.584 24.679-11.811 24.679-13.361 24.679-3.125 0-4.538-3.18-5.785-5.985-.1-.225-.217-.485-.339-.754-.487-.939-1.266-.939-1.752 0-.123.269-.24.529-.34.754-1.247 2.805-2.66 5.985-5.784 5.985-2.304 0-5.467-2.084-7.452-12.01a2.5 2.5 0 0 1 4.903-.981 594.235 594.235 0 0 0 1.748 5.663c.429 1.001 1.177 1.03 1.672.077.124-.273.243-.537.344-.764.183-.412.371-.831.566-1.248l.003-.007c.195-.416.399-.828.615-1.226l.003-.004c1.043-1.917 2.394-3.5 4.598-3.5 2.66 0 4.08 2.306 5.212 4.723l.011.025c.194.413.379.828.561 1.237l.307.685c.447.88 1.188.803 1.655-.182 0 0 3.902-8.748 5.594-12.52.8-2.094 1.583-4.231 2.298-6.29a2.503 2.503 0 0 1 3.183-1.54A2.501 2.501 0 0 1 0 0" transform="translate(36.361 7.821)"/></g></svg>